<svg width="32" height="32" viewBox="0 0 32 32" fill="none" xmlns="http://www.w3.org/2000/svg">
<path d="M26.6666 13.3333C26.6666 19.9907 19.2813 26.924 16.8013 29.0653C16.5703 29.2391 16.289 29.333 16 29.333C15.7109 29.333 15.4297 29.2391 15.1986 29.0653C12.7186 26.924 5.33331 19.9907 5.33331 13.3333C5.33331 10.5043 6.45712 7.79124 8.45751 5.79085C10.4579 3.79046 13.171 2.66666 16 2.66666C18.829 2.66666 21.5421 3.79046 23.5425 5.79085C25.5428 7.79124 26.6666 10.5043 26.6666 13.3333Z" stroke="#5D4037" stroke-width="2.66667" stroke-linecap="round" stroke-linejoin="round"/>
<path d="M16 17.3333C18.2091 17.3333 20 15.5425 20 13.3333C20 11.1242 18.2091 9.33334 16 9.33334C13.7909 9.33334 12 11.1242 12 13.3333C12 15.5425 13.7909 17.3333 16 17.3333Z" stroke="#5D4037" stroke-width="2.66667" stroke-linecap="round" stroke-linejoin="round"/>
</svg>
