<svg width="40" height="40" viewBox="0 0 40 40" fill="none" xmlns="http://www.w3.org/2000/svg">
<path d="M16.6667 3.33334V6.66668" stroke="#5D4037" stroke-width="3.33333" stroke-linecap="round" stroke-linejoin="round"/>
<path d="M23.3333 3.33334V6.66668" stroke="#5D4037" stroke-width="3.33333" stroke-linecap="round" stroke-linejoin="round"/>
<path d="M26.6667 13.3333C27.1087 13.3333 27.5326 13.5089 27.8452 13.8215C28.1577 14.1341 28.3333 14.558 28.3333 15V28.3333C28.3333 30.1015 27.631 31.7971 26.3807 33.0474C25.1305 34.2976 23.4348 35 21.6667 35H11.6667C9.89856 35 8.20286 34.2976 6.95262 33.0474C5.70238 31.7971 5 30.1015 5 28.3333V15C5 14.558 5.17559 14.1341 5.48816 13.8215C5.80072 13.5089 6.22464 13.3333 6.66667 13.3333H30C31.7681 13.3333 33.4638 14.0357 34.714 15.286C35.9643 16.5362 36.6667 18.2319 36.6667 20C36.6667 21.7681 35.9643 23.4638 34.714 24.7141C33.4638 25.9643 31.7681 26.6667 30 26.6667H28.3333" stroke="#5D4037" stroke-width="3.33333" stroke-linecap="round" stroke-linejoin="round"/>
<path d="M10 3.33334V6.66668" stroke="#5D4037" stroke-width="3.33333" stroke-linecap="round" stroke-linejoin="round"/>
</svg>
